<?xml version="1.0" encoding="UTF-8"?>
<svg id="Capa_2" data-name="Capa 2" xmlns="http://www.w3.org/2000/svg" viewBox="0 0 63.7 11.18">
  <defs>
    <style>
      .cls-1 {
        fill: #0f539e;
      }

      .cls-2 {
        fill: #84ae2b;
      }
    </style>
  </defs>
  <g id="Capa_1-2" data-name="Capa 1">
    <g>
      <path class="cls-1" d="M5.32,2.51h0c-.36-.16-.75-.25-1.16-.27-.42-.02-.84.07-1.27.24-.43.17-.79.42-1.08.72-.29.3-.51.64-.66,1.02-.15.37-.22.77-.21,1.18,0,.41.09.82.25,1.22s.39.75.68,1.05c.29.3.62.53.98.7.36.16.76.25,1.18.26.42,0,.85-.07,1.27-.25.28-.12.54-.26.77-.44.23-.18.43-.38.59-.59.16-.21.29-.45.38-.69.09-.24.14-.5.15-.75v-.16s-1.16.14-1.16.14v.12c0,.14-.02.29-.08.42-.06.14-.14.28-.23.4-.1.12-.22.24-.35.34-.31.25-.71.38-1.1.38-.23,0-.46-.05-.67-.13-.21-.08-.42-.21-.6-.38-.15-.14-.28-.3-.39-.49l4.47-1.84-.02-.11s-.02-.1-.05-.17c-.02-.07-.05-.14-.08-.22-.15-.37-.37-.71-.65-1.01-.28-.29-.6-.53-.95-.69M5.6,4.23l-3.4,1.4c-.05-.2-.07-.4-.06-.59.01-.24.06-.46.15-.67.09-.21.22-.39.39-.56.33-.32.82-.52,1.28-.52.23,0,.46.04.67.12.21.08.41.2.59.36.15.13.28.29.38.46"/>
      <path class="cls-1" d="M12.43,5.48c-.2-.13-.45-.25-.75-.35-.29-.09-.64-.19-1.03-.28-.24-.06-.45-.11-.63-.17-.16-.05-.3-.1-.4-.17-.09-.05-.15-.12-.19-.18-.04-.07-.06-.16-.06-.27,0-.29.1-.49.31-.62.23-.14.51-.21.84-.21.3,0,.61.05.9.16.29.1.55.26.79.46l.11.1.62-.82-.1-.08c-.27-.24-.61-.44-1.01-.59-.4-.15-.83-.22-1.29-.22-.33,0-.64.04-.92.12-.29.08-.54.21-.76.37-.22.17-.39.37-.52.62-.13.25-.19.53-.19.84,0,.25.04.47.13.64.09.18.22.33.41.46.17.12.4.22.67.31.25.08.56.17.92.26.28.07.52.13.73.19.2.06.36.12.49.19.12.06.2.14.26.22.05.08.08.17.08.29,0,.26-.1.46-.32.6-.23.15-.54.23-.94.23-.36,0-.71-.06-1.04-.19-.33-.13-.67-.32-1-.57l-.12-.09-.57.89.09.08c.34.29.75.51,1.23.66.47.15.95.23,1.44.23.74,0,1.34-.17,1.78-.51.45-.35.68-.82.68-1.41,0-.27-.05-.5-.16-.7-.1-.19-.26-.36-.47-.5"/>
      <path class="cls-1" d="M18.49,6.65c-.04.11-.1.21-.19.3-.1.1-.21.19-.34.26-.13.08-.27.14-.43.18-.4.11-.82.08-1.17-.09-.22-.1-.41-.25-.57-.43-.17-.19-.3-.41-.4-.66-.1-.25-.15-.53-.15-.82s.05-.57.14-.82c.1-.25.22-.46.39-.64.16-.18.35-.32.57-.42.49-.22,1.09-.19,1.54.06.25.14.44.34.58.59l.05.1,1.23-.39-.07-.14c-.23-.46-.57-.83-1.01-1.1-.44-.27-.98-.41-1.59-.41-.47,0-.9.09-1.28.25-.38.17-.71.4-.98.68-.27.29-.49.63-.64,1.01-.15.38-.22.79-.22,1.22s.08.84.23,1.23c.15.39.37.73.64,1.02.27.29.61.52.99.7.38.17.81.26,1.27.26.3,0,.6-.04.87-.12.28-.08.53-.18.76-.32.23-.13.43-.3.6-.49.17-.19.31-.4.4-.63l.06-.14-1.24-.37-.04.12Z"/>
      <path class="cls-1" d="M25.89,7.14v-2.4c0-.79-.23-1.41-.69-1.84-.46-.44-1.1-.66-1.9-.66s-1.58.26-2.36.79l-.1.07.45.89.13-.09c.63-.44,1.23-.66,1.79-.66.45,0,.81.12,1.05.37.25.25.37.59.37,1.03v.28c-.19-.06-.39-.11-.61-.15-.68-.12-1.36-.11-1.93.06-.32.09-.6.23-.83.39-.24.17-.42.38-.55.61-.13.24-.2.51-.2.8s.06.55.16.78c.11.24.26.45.45.62.19.18.41.32.67.42.25.1.53.15.83.15.48,0,.93-.1,1.35-.29.31-.14.59-.34.82-.58v.08c.03.2.11.36.25.5.14.14.33.21.56.21.08,0,.16,0,.23-.01.07,0,.16-.02.26-.03l.12-.02v-1.11h-.13c-.12,0-.18-.05-.18-.23M24.63,5.79v.77c0,.11-.06.23-.19.36-.14.2-.36.36-.63.48-.29.12-.6.19-.93.19-.16,0-.32-.03-.46-.08-.14-.05-.26-.13-.37-.22-.1-.09-.18-.2-.24-.33-.06-.12-.08-.26-.08-.4,0-.29.13-.52.41-.71.29-.19.67-.29,1.13-.29s.92.08,1.36.24"/>
      <path class="cls-1" d="M29.97,7.27c-.09.03-.19.07-.3.09h0c-.1.02-.19.04-.26.04-.17,0-.3-.05-.39-.14-.09-.1-.14-.24-.14-.42V0h-1.27v7.19c0,.43.13.77.37,1.01.25.24.58.37,1,.37.18,0,.39-.02.62-.07.23-.05.44-.11.61-.18l.1-.04-.21-1.07-.15.06Z"/>
      <path class="cls-1" d="M36.31,7.36c-.12,0-.18-.04-.18-.22v-2.4c0-.79-.23-1.41-.69-1.84-.46-.44-1.1-.66-1.9-.66s-1.58.26-2.36.79l-.1.07.45.89.13-.09c.63-.44,1.23-.66,1.79-.66.45,0,.81.12,1.05.37.25.25.37.59.37,1.03v.28c-.19-.06-.39-.11-.61-.15-.68-.12-1.36-.11-1.92.06-.32.09-.6.23-.83.39-.24.17-.42.38-.55.61-.13.24-.2.51-.2.8s.06.55.16.78c.11.24.26.45.45.62.19.18.41.32.67.42.25.1.53.15.83.15.48,0,.93-.1,1.35-.29.31-.14.59-.34.82-.58v.08c.03.19.11.36.25.5.14.14.33.21.56.21.08,0,.16,0,.23-.01.07,0,.16-.02.26-.03l.12-.02v-1.11h-.13ZM34.86,5.79v.77c0,.11-.06.23-.19.36-.14.2-.36.36-.63.48-.29.12-.6.19-.93.19-.16,0-.32-.03-.46-.08-.14-.05-.26-.13-.37-.22-.1-.09-.18-.2-.24-.33-.06-.12-.08-.26-.08-.4,0-.29.13-.52.41-.71.29-.19.67-.29,1.13-.29s.92.08,1.36.24"/>
      <path class="cls-1" d="M40.78,8.46c-.46,0-.89-.12-1.28-.36-.4-.24-.71-.55-.93-.92v1.17h-.52V.14h.56v3.63c.28-.4.61-.74.98-.99.38-.25.82-.38,1.31-.38.41,0,.79.09,1.12.26.33.18.62.41.84.7.23.29.4.62.53.98.12.36.19.73.19,1.11,0,.4-.07.79-.21,1.15-.14.36-.34.68-.59.96-.25.27-.55.49-.89.66-.34.17-.71.25-1.11.25M40.67,7.96c.34,0,.66-.07.94-.21.29-.14.53-.33.74-.57.21-.24.37-.5.48-.8.12-.3.17-.61.17-.92s-.06-.65-.16-.95c-.11-.3-.26-.57-.46-.81-.2-.24-.44-.43-.71-.57-.27-.14-.58-.21-.91-.21-.25,0-.48.04-.7.13-.22.09-.42.2-.6.34-.18.14-.35.31-.5.5-.15.19-.27.38-.37.58v1.94c.02.22.1.42.25.61.14.19.31.36.51.49.2.14.41.25.65.33.23.08.45.12.65.12"/>
      <path class="cls-1" d="M47.81,8.46c-.41,0-.79-.08-1.15-.24-.35-.16-.66-.38-.92-.66-.26-.28-.46-.61-.61-.97-.15-.37-.22-.76-.22-1.18s.07-.8.22-1.16c.15-.36.35-.68.6-.96.25-.27.56-.49.91-.65.35-.16.73-.24,1.13-.24s.79.08,1.15.24c.35.16.66.38.91.65.25.27.45.59.6.96.14.36.21.75.21,1.15v.14c0,.06,0,.09-.01.11h-5.13c.02.34.1.65.24.94.13.29.31.54.51.75.21.21.44.37.71.49.27.12.56.18.87.18.2,0,.4-.03.6-.08.2-.06.38-.13.55-.23.17-.1.32-.21.45-.35.13-.14.23-.29.31-.46l.49.13c-.08.21-.2.4-.37.58-.16.18-.35.33-.56.46-.21.13-.45.23-.7.3-.25.07-.52.11-.79.11M50.11,5.2c-.02-.34-.1-.66-.23-.94s-.3-.53-.51-.74c-.21-.21-.44-.37-.71-.48-.27-.12-.56-.17-.87-.17s-.6.06-.87.17c-.27.12-.51.28-.71.48-.21.21-.37.45-.5.74-.12.29-.2.6-.22.94h4.61Z"/>
      <path class="cls-1" d="M54.69,8.46c-.4,0-.78-.08-1.13-.25-.34-.17-.64-.39-.89-.67-.25-.28-.45-.6-.59-.97-.14-.36-.21-.74-.21-1.13s.07-.79.2-1.16c.13-.37.32-.69.56-.97.24-.28.52-.5.85-.66.33-.17.68-.25,1.07-.25.25,0,.49.04.72.11.23.07.44.17.63.3.19.12.37.27.53.43.16.17.29.34.4.53V.14h.56v7.43c0,.19.08.28.24.28v.51s-.08.01-.11.02c-.03,0-.06,0-.09,0-.15,0-.28-.06-.38-.17-.11-.12-.16-.24-.16-.37v-.65c-.24.39-.56.7-.96.93-.4.23-.82.35-1.25.35M54.79,7.96c.2,0,.42-.04.65-.12.23-.08.45-.2.65-.34.2-.15.37-.31.51-.5.14-.19.23-.39.25-.61v-1.92c-.08-.21-.2-.41-.35-.6-.15-.19-.33-.36-.52-.5-.2-.14-.4-.25-.63-.33-.23-.08-.44-.12-.65-.12-.34,0-.65.07-.92.22-.28.15-.51.34-.71.57-.2.24-.34.51-.45.81-.1.3-.16.62-.16.94s.06.66.18.96c.12.3.29.57.5.8.21.23.46.42.74.55.28.13.59.2.92.2"/>
      <path class="cls-1" d="M61.45,8.46c-.45,0-.88-.08-1.29-.22-.41-.15-.77-.38-1.08-.67l.28-.38c.31.29.64.49.98.63.34.13.71.2,1.11.2.51,0,.92-.11,1.23-.32.31-.21.47-.51.47-.89,0-.18-.04-.33-.12-.46-.08-.12-.2-.23-.35-.32-.16-.09-.35-.16-.59-.23-.23-.07-.5-.14-.81-.21-.33-.07-.62-.15-.86-.22-.24-.08-.44-.17-.6-.27-.16-.1-.28-.23-.35-.38-.08-.15-.12-.34-.12-.57,0-.29.06-.55.17-.76.11-.22.27-.4.47-.54.2-.14.43-.25.69-.32.26-.07.53-.11.83-.11.46,0,.86.08,1.21.23.35.15.63.35.82.59l-.32.3c-.2-.22-.45-.39-.76-.51-.31-.11-.64-.17-1-.17-.22,0-.42.02-.61.07-.19.05-.36.12-.5.21-.14.1-.25.22-.34.38-.08.15-.12.34-.12.55,0,.17.03.31.08.42.06.1.15.2.27.27.12.07.28.14.48.2.19.06.43.12.7.19.37.09.69.18.98.26.29.08.52.18.71.3.19.12.34.26.44.43.1.16.15.37.15.63,0,.52-.21.94-.61,1.25-.41.31-.95.47-1.64.47"/>
      <path class="cls-2" d="M7.78,11.18H.99c-.54,0-.99-.44-.99-.99s.44-.98.99-.98h6.79c.54,0,.99.44.99.98s-.44.99-.99.99"/>
    </g>
  </g>
</svg>

