<?xml version="1.0" encoding="UTF-8"?>
<svg id="Capa_2" data-name="Capa 2" xmlns="http://www.w3.org/2000/svg" viewBox="0 0 21.48 16.75">
  <defs>
    <style>
      .cls-1 {
        fill: #fff;
      }

      .cls-2 {
        fill: #ea0029;
      }
    </style>
  </defs>
  <g id="Capa_1-2" data-name="Capa 1">
    <g>
      <path class="cls-2" d="M21.48,6.69c0-1.7-.64-3.84-2.59-5.28C16.89-.06,14.59-.25,12.78.24c-.67.18-1.42.61-2.04.61s-1.37-.43-2.04-.61C6.89-.25,4.59-.06,2.59,1.41.64,2.85,0,4.99,0,6.69c0,3.34,1.82,5.73,4.05,7.53,2.12,1.68,4.63,2.53,6.69,2.53h0c2.06,0,4.51-.83,6.69-2.53,2.22-1.91,4.05-4.19,4.05-7.53"/>
      <path class="cls-1" d="M17.87,8.99c-.33,0-.6.39-.6.71,0,.36.31.48.6.48s.59-.12.59-.48c0-.32-.26-.71-.59-.71"/>
      <path class="cls-1" d="M18.3,6.83c.05-.65.1-1.23.11-1.23.01-.16-.03-.31-.13-.42-.1-.11-.23-.16-.38-.16h-.02c-.15,0-.29.06-.4.17-.1.11-.15.26-.14.42,0,0,.05.59.1,1.23.05.63.11,1.12.14,1.36.04.27.14.33.29.33s.25-.06.29-.33c.03-.24.09-.73.14-1.36"/>
      <path class="cls-1" d="M11.3,4.69h0c-.16,0-.26.06-.42.25-.15.18-.38.43-.38.43-.09.11-.17.22-.18.29-.01.08-.02.16.07.26.08.09.16.1.22.1.01,0,.03,0,.05,0,.05,0,.13-.01.29-.13l.6-.42c.14-.11.21-.25.18-.38-.03-.15-.17-.39-.44-.39"/>
      <path class="cls-1" d="M15.45,6.51c-.56,0-.89.28-1.07.51h0s-.05.07-.05.07v-1.5c0-.31-.29-.47-.58-.47-.26,0-.35.12-.35.47v2.09s0,.05,0,.63v.58c0,.45-.15.69-.47.69s-.49-.24-.49-.69c0-.03,0-.41,0-.55.01-.26.02-.53,0-.77-.09-.76-.61-1.15-1.54-1.15-.73,0-1.08.26-1.23.41-.13.14-.21.3-.2.45,0,.18.12.37.37.36.15,0,.23-.09.33-.18.13-.14.3-.31.73-.31.37,0,.64.19.64.45,0,.31-.22.36-.44.39l-.59.07c-.61.07-1.25.23-1.33.93,0,0-.01.1-.01.12,0,0,0,.02,0,.03-.02.23-.13.32-.31.32-.27,0-.34-.15-.36-.35v-1.45c0-.96-.65-1.16-1.2-1.16-.48,0-.83.19-1.13.61l-.02.04v-.04c-.23-.56-.77-.6-.93-.6-.48,0-.9.22-1.15.61h0s-.05.07-.05.07v-.21c0-.29-.29-.47-.55-.47s-.32.18-.32.47v2.71c0,.13,0,.24.04.32.05.08.14.13.3.13.4,0,.58-.24.58-.47v-1.62c0-.49.38-.78.74-.78s.56.24.56.65v1.75c0,.32.15.47.46.47s.47-.15.47-.47v-1.62c0-.49.37-.78.73-.78s.56.24.56.65v1.24c0,.6.28.93.83.95.02,0,.05,0,.08,0,.3,0,.52-.1.68-.32,0,0,.01-.01.01-.02h0s.05-.06.09-.06c.03,0,.05.01.08.03h0s.05.04.08.07c.03.03.07.06.08.07.19.15.5.26.81.27.37.01.73-.04.99-.16.16-.08.33-.17.45-.31.03-.03.07-.08.09-.12.15.41.6.57,1.06.57h.15c.69-.03,1.22-.3,1.22-1.25,0-.19,0-.29.01-.43.02-.44.06-.7.18-.86.14-.2.4-.32.63-.32.41,0,.64.25.64.7v1.7c0,.23.18.47.58.47.16,0,.26-.04.31-.13.04-.08.04-.19.04-.32v-1.92c0-1.14-.84-1.26-1.21-1.26M11.04,9.46c-.12.04-.26.08-.41.08h0c-.33,0-.55-.18-.55-.43,0-.29.15-.46.64-.52,0,0,.63-.06.89-.38v.37c0,.63-.31.79-.56.89"/>
      <path class="cls-1" d="M18.69,5.79c0-.16.12-.28.28-.28s.28.12.28.28-.12.28-.28.28-.28-.12-.28-.28M19.19,5.79c0-.13-.09-.23-.23-.23s-.23.09-.23.23.1.23.23.23.23-.1.23-.23M18.87,5.94s-.01,0-.01-.01v-.28s0-.01,0-.01h.12c.07,0,.1.03.1.09,0,.05-.02.07-.06.09l.06.12s0,.01,0,.01h-.04s0,0-.01-.01l-.06-.11h-.06s0,0,0,0v.11s0,.01,0,.01h-.04ZM19.03,5.73s-.02-.04-.05-.04h-.07s0,0,0,0v.07s0,0,0,0h.07s.05-.02.05-.05"/>
    </g>
  </g>
</svg>

